<svg width="22" height="18" viewBox="0 0 22 18" fill="none" xmlns="http://www.w3.org/2000/svg">
<path d="M1.52778 0.5C0.68401 0.5 0 1.16811 0 1.99227C0 2.81642 0.684009 3.48453 1.52778 3.48453H9.12749C9.08633 3.49693 9.04525 3.50969 9.00426 3.52281C7.30906 4.06548 5.87432 5.1928 4.96845 6.69389C4.06257 8.19498 3.74761 9.96701 4.08248 11.6785C4.41734 13.39 5.3791 14.9237 6.78784 15.9927C8.19658 17.0617 9.9558 17.5928 11.7364 17.4867C13.0219 17.41 14.2549 17.0051 15.3173 16.3236C15.9991 15.8862 15.996 14.9578 15.4209 14.3927C14.8458 13.8277 13.9141 13.8535 13.1779 14.1968C12.6735 14.432 12.1235 14.5728 11.5564 14.6066C10.4927 14.67 9.44179 14.3527 8.60023 13.7141C7.75867 13.0755 7.18413 12.1593 6.98408 11.1369C6.78404 10.1144 6.97219 9.05585 7.51335 8.15912C8.05451 7.26239 8.9116 6.58894 9.92429 6.26476C10.937 5.94058 12.0359 5.98786 13.0155 6.39777C13.9951 6.80768 14.7882 7.55213 15.2465 8.49187C15.4909 8.99283 15.6311 9.53099 15.6647 10.076C15.7137 10.8714 16.1418 11.6801 16.9265 11.8979C17.7112 12.1157 18.5443 11.6688 18.6058 10.8743C18.7018 9.63636 18.4674 8.38653 17.9135 7.2509C17.1463 5.67782 15.8186 4.43163 14.1788 3.74546C13.9402 3.64562 13.6974 3.55863 13.4514 3.48453H20.4722C21.316 3.48453 22 2.81642 22 1.99227C22 1.16811 21.316 0.5 20.4722 0.5H1.52778Z" fill="#24124C"/>
</svg>
